<mxfile host="65bd71144e">
    <diagram name="페이지-1" id="1zRKgmUaXTxRe6Tk9ieO">
        <mxGraphModel dx="1038" dy="547" grid="1" gridSize="10" guides="1" tooltips="1" connect="1" arrows="1" fold="1" page="1" pageScale="1" pageWidth="827" pageHeight="1169" math="0" shadow="0">
            <root>
                <mxCell id="0"/>
                <mxCell id="1" parent="0"/>
                <mxCell id="HX1PcJEUQ6J4BHZRip1N-5" value="User Client" style="fillColor=#EFF0F3;strokeColor=none;dashed=0;verticalAlign=top;fontStyle=0;fontColor=#232F3D;whiteSpace=wrap;html=1;" parent="1" vertex="1">
                    <mxGeometry x="40" y="40" width="320" height="120" as="geometry"/>
                </mxCell>
                <mxCell id="HX1PcJEUQ6J4BHZRip1N-1" value="DNS" style="fillColor=#EFF0F3;strokeColor=none;dashed=0;verticalAlign=top;fontStyle=0;fontColor=#232F3D;whiteSpace=wrap;html=1;" parent="1" vertex="1">
                    <mxGeometry x="520" y="40" width="200" height="120" as="geometry"/>
                </mxCell>
                <mxCell id="HX1PcJEUQ6J4BHZRip1N-2" value="" style="image;sketch=0;aspect=fixed;html=1;points=[];align=center;fontSize=12;image=img/lib/mscae/DNS.svg;" parent="1" vertex="1">
                    <mxGeometry x="595" y="80" width="50" height="50" as="geometry"/>
                </mxCell>
                <mxCell id="HX1PcJEUQ6J4BHZRip1N-3" value="" style="sketch=0;outlineConnect=0;fontColor=#232F3E;gradientColor=none;fillColor=#232F3D;strokeColor=none;dashed=0;verticalLabelPosition=bottom;verticalAlign=top;align=center;html=1;fontSize=12;fontStyle=0;aspect=fixed;pointerEvents=1;shape=mxgraph.aws4.mobile_client;" parent="1" vertex="1">
                    <mxGeometry x="250" y="66" width="41" height="78" as="geometry"/>
                </mxCell>
                <mxCell id="HX1PcJEUQ6J4BHZRip1N-4" value="" style="sketch=0;outlineConnect=0;fontColor=#232F3E;gradientColor=none;fillColor=#232F3D;strokeColor=none;dashed=0;verticalLabelPosition=bottom;verticalAlign=top;align=center;html=1;fontSize=12;fontStyle=0;aspect=fixed;pointerEvents=1;shape=mxgraph.aws4.client;" parent="1" vertex="1">
                    <mxGeometry x="100" y="68" width="78" height="76" as="geometry"/>
                </mxCell>
                <mxCell id="HX1PcJEUQ6J4BHZRip1N-6" value="AWS Cloud" style="points=[[0,0],[0.25,0],[0.5,0],[0.75,0],[1,0],[1,0.25],[1,0.5],[1,0.75],[1,1],[0.75,1],[0.5,1],[0.25,1],[0,1],[0,0.75],[0,0.5],[0,0.25]];outlineConnect=0;gradientColor=none;html=1;whiteSpace=wrap;fontSize=12;fontStyle=0;container=1;pointerEvents=0;collapsible=0;recursiveResize=0;shape=mxgraph.aws4.group;grIcon=mxgraph.aws4.group_aws_cloud;strokeColor=#232F3E;fillColor=none;verticalAlign=top;align=left;spacingLeft=30;fontColor=#232F3E;dashed=0;" parent="1" vertex="1">
                    <mxGeometry x="40" y="220" width="680" height="260" as="geometry"/>
                </mxCell>
                <mxCell id="HX1PcJEUQ6J4BHZRip1N-8" value="Region" style="points=[[0,0],[0.25,0],[0.5,0],[0.75,0],[1,0],[1,0.25],[1,0.5],[1,0.75],[1,1],[0.75,1],[0.5,1],[0.25,1],[0,1],[0,0.75],[0,0.5],[0,0.25]];outlineConnect=0;gradientColor=none;html=1;whiteSpace=wrap;fontSize=12;fontStyle=0;container=1;pointerEvents=0;collapsible=0;recursiveResize=0;shape=mxgraph.aws4.group;grIcon=mxgraph.aws4.group_region;strokeColor=#00A4A6;fillColor=none;verticalAlign=top;align=left;spacingLeft=30;fontColor=#147EBA;dashed=1;" parent="HX1PcJEUQ6J4BHZRip1N-6" vertex="1">
                    <mxGeometry x="20" y="30" width="640" height="210" as="geometry"/>
                </mxCell>
                <mxCell id="HX1PcJEUQ6J4BHZRip1N-9" value="EC2 instance contents" style="points=[[0,0],[0.25,0],[0.5,0],[0.75,0],[1,0],[1,0.25],[1,0.5],[1,0.75],[1,1],[0.75,1],[0.5,1],[0.25,1],[0,1],[0,0.75],[0,0.5],[0,0.25]];outlineConnect=0;gradientColor=none;html=1;whiteSpace=wrap;fontSize=12;fontStyle=0;container=1;pointerEvents=0;collapsible=0;recursiveResize=0;shape=mxgraph.aws4.group;grIcon=mxgraph.aws4.group_ec2_instance_contents;strokeColor=#D86613;fillColor=none;verticalAlign=top;align=left;spacingLeft=30;fontColor=#D86613;dashed=0;" parent="HX1PcJEUQ6J4BHZRip1N-8" vertex="1">
                    <mxGeometry x="30" y="40" width="220" height="130" as="geometry"/>
                </mxCell>
                <mxCell id="HX1PcJEUQ6J4BHZRip1N-18" value="&lt;div style=&quot;&quot;&gt;&lt;span style=&quot;background-color: initial;&quot;&gt;&amp;nbsp; &amp;nbsp; &amp;nbsp; &amp;nbsp; &amp;nbsp; Database&lt;/span&gt;&lt;/div&gt;" style="fillColor=none;strokeColor=#FF33FF;verticalAlign=top;fontStyle=0;fontColor=#5A6C86;whiteSpace=wrap;html=1;align=left;" parent="HX1PcJEUQ6J4BHZRip1N-8" vertex="1">
                    <mxGeometry x="370" y="40" width="240" height="130" as="geometry"/>
                </mxCell>
                <mxCell id="HX1PcJEUQ6J4BHZRip1N-19" value="" style="sketch=0;points=[[0,0,0],[0.25,0,0],[0.5,0,0],[0.75,0,0],[1,0,0],[0,1,0],[0.25,1,0],[0.5,1,0],[0.75,1,0],[1,1,0],[0,0.25,0],[0,0.5,0],[0,0.75,0],[1,0.25,0],[1,0.5,0],[1,0.75,0]];outlineConnect=0;fontColor=#232F3E;fillColor=#C925D1;strokeColor=#ffffff;dashed=0;verticalLabelPosition=bottom;verticalAlign=top;align=center;html=1;fontSize=12;fontStyle=0;aspect=fixed;shape=mxgraph.aws4.resourceIcon;resIcon=mxgraph.aws4.database;" parent="HX1PcJEUQ6J4BHZRip1N-8" vertex="1">
                    <mxGeometry x="370" y="40" width="30" height="30" as="geometry"/>
                </mxCell>
                <mxCell id="HX1PcJEUQ6J4BHZRip1N-21" value="" style="sketch=0;outlineConnect=0;fontColor=#232F3E;gradientColor=none;fillColor=#C925D1;strokeColor=none;dashed=0;verticalLabelPosition=bottom;verticalAlign=top;align=center;html=1;fontSize=12;fontStyle=0;aspect=fixed;pointerEvents=1;shape=mxgraph.aws4.rds_postgresql_instance;" parent="HX1PcJEUQ6J4BHZRip1N-8" vertex="1">
                    <mxGeometry x="463" y="78" width="54" height="54" as="geometry"/>
                </mxCell>
                <mxCell id="HX1PcJEUQ6J4BHZRip1N-22" value="" style="edgeStyle=orthogonalEdgeStyle;html=1;endArrow=block;elbow=vertical;startArrow=block;startFill=1;endFill=1;strokeColor=#545B64;rounded=0;exitX=1;exitY=0.5;exitDx=0;exitDy=0;entryX=0;entryY=0.5;entryDx=0;entryDy=0;" parent="HX1PcJEUQ6J4BHZRip1N-8" source="HX1PcJEUQ6J4BHZRip1N-9" target="HX1PcJEUQ6J4BHZRip1N-18" edge="1">
                    <mxGeometry width="100" relative="1" as="geometry">
                        <mxPoint x="360" y="320" as="sourcePoint"/>
                        <mxPoint x="460" y="320" as="targetPoint"/>
                    </mxGeometry>
                </mxCell>
                <mxCell id="HX1PcJEUQ6J4BHZRip1N-23" value="2" style="ellipse;whiteSpace=wrap;html=1;aspect=fixed;strokeWidth=2;fontFamily=Tahoma;spacingBottom=4;spacingRight=2;strokeColor=#d79b00;fillColor=#ffe6cc;fontStyle=1" parent="HX1PcJEUQ6J4BHZRip1N-8" vertex="1">
                    <mxGeometry x="300" y="80" width="20" height="20" as="geometry"/>
                </mxCell>
                <mxCell id="HX1PcJEUQ6J4BHZRip1N-12" value="Domain to IP" style="edgeStyle=orthogonalEdgeStyle;html=1;endArrow=block;elbow=vertical;startArrow=block;startFill=1;endFill=1;strokeColor=#545B64;rounded=0;exitX=1;exitY=0.5;exitDx=0;exitDy=0;entryX=0;entryY=0.5;entryDx=0;entryDy=0;" parent="1" source="HX1PcJEUQ6J4BHZRip1N-5" target="HX1PcJEUQ6J4BHZRip1N-1" edge="1">
                    <mxGeometry width="100" relative="1" as="geometry">
                        <mxPoint x="500" y="220" as="sourcePoint"/>
                        <mxPoint x="600" y="220" as="targetPoint"/>
                    </mxGeometry>
                </mxCell>
                <mxCell id="HX1PcJEUQ6J4BHZRip1N-13" value="" style="edgeStyle=orthogonalEdgeStyle;html=1;endArrow=block;elbow=vertical;startArrow=block;startFill=1;endFill=1;strokeColor=#545B64;rounded=0;exitX=0.5;exitY=1;exitDx=0;exitDy=0;entryX=0.5;entryY=0;entryDx=0;entryDy=0;" parent="1" source="HX1PcJEUQ6J4BHZRip1N-5" target="HX1PcJEUQ6J4BHZRip1N-9" edge="1">
                    <mxGeometry width="100" relative="1" as="geometry">
                        <mxPoint x="470" y="270" as="sourcePoint"/>
                        <mxPoint x="570" y="270" as="targetPoint"/>
                    </mxGeometry>
                </mxCell>
                <mxCell id="2" value="Server" style="sketch=0;outlineConnect=0;fontColor=#232F3E;gradientColor=none;fillColor=#D45B07;strokeColor=none;dashed=0;verticalLabelPosition=bottom;verticalAlign=top;align=center;html=1;fontSize=12;fontStyle=0;aspect=fixed;pointerEvents=1;shape=mxgraph.aws4.instance2;" parent="1" vertex="1">
                    <mxGeometry x="176" y="340" width="48" height="48" as="geometry"/>
                </mxCell>
                <mxCell id="4" value="1" style="ellipse;whiteSpace=wrap;html=1;aspect=fixed;strokeWidth=2;fontFamily=Tahoma;spacingBottom=4;spacingRight=2;strokeColor=#d79b00;fillColor=#ffe6cc;fontStyle=1" parent="1" vertex="1">
                    <mxGeometry x="212" y="190" width="20" height="20" as="geometry"/>
                </mxCell>
                <mxCell id="5" value="" style="rounded=0;whiteSpace=wrap;html=1;fillColor=none;" vertex="1" parent="1">
                    <mxGeometry x="19" y="20" width="731" height="500" as="geometry"/>
                </mxCell>
            </root>
        </mxGraphModel>
    </diagram>
</mxfile>